<svg width="151" height="57" viewBox="0 0 151 57" fill="none" xmlns="http://www.w3.org/2000/svg">
<g clip-path="url(#clip0_1_519)">
<path d="M0 0.40625H151V56.4062H0V0.40625Z" fill="black"/>
<path d="M50.6801 15.356V22.406H53.0501C55.1501 22.406 56.3801 21.106 56.3801 18.876C56.3801 16.666 55.1401 15.356 53.0501 15.356H50.6801ZM51.5601 16.156H53.0001C54.6001 16.156 55.4901 17.126 55.4901 18.886C55.4901 20.636 54.6001 21.616 53.0001 21.616H51.5701V16.156H51.5601ZM57.8801 22.406H58.7301V17.326H57.8801V22.406ZM58.3101 16.426C58.6101 16.426 58.8401 16.186 58.8401 15.896C58.8401 15.7554 58.7842 15.6206 58.6848 15.5212C58.5854 15.4218 58.4506 15.366 58.3101 15.366C58.1695 15.366 58.0347 15.4218 57.9353 15.5212C57.8359 15.6206 57.7801 15.7554 57.7801 15.896C57.7801 16.186 58.0101 16.426 58.3101 16.426ZM60.2901 18.726C60.2901 19.466 60.7601 19.906 61.7101 20.136L62.5101 20.336C63.1001 20.476 63.3001 20.686 63.3001 21.046C63.3001 21.506 62.8801 21.796 62.1901 21.796C61.4901 21.796 61.1101 21.526 61.0001 20.946H60.1601C60.2601 21.896 61.0001 22.496 62.1901 22.496C63.3201 22.496 64.1501 21.866 64.1501 20.986C64.1501 20.256 63.7801 19.856 62.7501 19.606L61.9501 19.406C61.3901 19.276 61.1301 19.036 61.1301 18.686C61.1301 18.236 61.5301 17.936 62.1601 17.936C62.7801 17.936 63.1701 18.256 63.2401 18.796H64.0401C64.0101 17.896 63.2701 17.236 62.1601 17.236C61.0601 17.236 60.2901 17.856 60.2901 18.736V18.726ZM68.0001 17.236C67.2701 17.236 66.6801 17.616 66.3601 18.186H66.34V17.326H65.5401V24.096H66.3901V21.576H66.4101C66.7101 22.136 67.3001 22.496 68.0201 22.496C69.3001 22.496 70.1801 21.456 70.1801 19.866C70.1801 18.266 69.3001 17.236 68.0001 17.236ZM67.84 21.746C66.97 21.746 66.3801 20.996 66.3801 19.866C66.3801 18.736 66.97 17.986 67.84 17.986C68.74 17.986 69.3101 18.716 69.3101 19.866C69.3101 21.016 68.74 21.746 67.84 21.746ZM73.6401 22.496C75.0401 22.496 75.9901 21.486 75.9901 19.866C75.9901 18.246 75.0401 17.236 73.6401 17.236C72.2401 17.236 71.2901 18.246 71.2901 19.866C71.2901 21.486 72.2301 22.496 73.6401 22.496ZM73.6401 21.746C72.7401 21.746 72.1501 21.066 72.1501 19.866C72.1501 18.666 72.7501 17.986 73.6501 17.986C74.5401 17.986 75.1201 18.666 75.1201 19.866C75.1201 21.066 74.5401 21.746 73.6401 21.746ZM77.34 22.406H78.2001V19.416C78.2001 18.556 78.7201 17.996 79.5201 17.996C80.3001 17.996 80.6901 18.446 80.6901 19.266V22.406H81.5401V19.106C81.5401 17.956 80.8901 17.236 79.7801 17.236C78.9901 17.236 78.4501 17.596 78.1701 18.136H78.1501V17.336H77.3501V22.406H77.34ZM83.1701 22.406H84.0201V17.326H83.1701V22.406ZM83.9301 16.596L85.0701 15.126H84.1401L83.2701 16.596H83.9301ZM89.8301 17.326H88.9401L87.5401 21.506H87.5201L86.1201 17.326H85.2201L87.1001 22.406H87.9701L89.84 17.326H89.8301ZM92.8901 17.976C93.6901 17.976 94.2201 18.576 94.2401 19.436H91.4801C91.5301 18.586 92.0901 17.976 92.8801 17.976H92.8901ZM94.2201 20.946C94.0801 21.426 93.6001 21.756 92.9601 21.756C92.0501 21.756 91.4801 21.116 91.4801 20.146V20.096H95.1201V19.776C95.1201 18.236 94.2701 17.236 92.9001 17.236C91.5001 17.236 90.6001 18.306 90.6001 19.886C90.6001 21.486 91.4901 22.486 92.9401 22.486C94.0401 22.486 94.9101 21.836 95.0501 20.946H94.2201ZM96.5201 22.406H97.3701V15.356H96.5201V22.406ZM101.57 22.406H102.42V19.416C102.42 18.556 102.94 17.996 103.74 17.996C104.52 17.996 104.91 18.446 104.91 19.266V22.406H105.76V19.106C105.76 17.956 105.11 17.236 104 17.236C103.22 17.236 102.67 17.596 102.39 18.136H102.37V17.336H101.57V22.406ZM109.02 21.776C108.41 21.776 108 21.456 108 20.976C108 20.496 108.4 20.186 109.08 20.146L110.43 20.066V20.476C110.43 21.206 109.82 21.776 109.02 21.776ZM108.82 22.496C109.52 22.496 110.16 22.116 110.46 21.536H110.48V22.406H111.28V18.896C111.28 17.886 110.53 17.236 109.34 17.236C108.14 17.236 107.39 17.916 107.33 18.796H108.15C108.25 18.296 108.67 17.996 109.32 17.996C110.02 17.996 110.43 18.356 110.43 18.976V19.406L108.98 19.486C107.81 19.556 107.14 20.106 107.14 20.966C107.14 21.886 107.82 22.496 108.83 22.496H108.82Z" fill="#F5F5F5"/>
<path fill-rule="evenodd" clip-rule="evenodd" d="M35.62 14.626C35.6746 15.3468 35.5862 16.0714 35.3596 16.7579C35.1331 17.4444 34.7729 18.0793 34.3 18.626C33.8318 19.1847 33.2453 19.6325 32.583 19.9369C31.9206 20.2413 31.1989 20.3947 30.47 20.386C30.4236 19.6848 30.5193 18.9816 30.7512 18.3183C30.9832 17.655 31.3467 17.0454 31.82 16.526C32.8096 15.4466 34.1626 14.7701 35.62 14.626ZM40.33 23.156C40.17 23.246 37.51 24.786 37.54 27.916C37.554 29.0052 37.8901 30.0659 38.5058 30.9645C39.1215 31.8632 39.9893 32.5595 41 32.966C40.98 33.066 40.47 34.766 39.2 36.516C38.14 38.056 37.03 39.556 35.26 39.586C34.43 39.606 33.86 39.366 33.26 39.126C32.5356 38.7837 31.7438 38.6079 30.9427 38.6113C30.1415 38.6148 29.3513 38.7975 28.63 39.146C28.07 39.366 27.53 39.596 26.77 39.626C25.09 39.686 23.8 37.986 22.7 36.456C20.5 33.356 18.8 27.706 21.09 23.856C21.6341 22.9264 22.4064 22.1511 23.3339 21.6034C24.2613 21.0557 25.3132 20.7537 26.39 20.726C27.3138 20.7667 28.2208 20.9875 29.06 21.376C29.67 21.616 30.22 21.826 30.66 21.826C31.06 21.826 31.59 21.626 32.21 21.386C33.19 21.006 34.38 20.546 35.61 20.676C36.44 20.696 38.81 20.996 40.33 23.156ZM94.59 38.646C95.38 37.946 95.77 37.046 95.77 35.946C95.77 35.046 95.5 34.296 94.97 33.696C94.2554 32.9819 93.3864 32.4413 92.43 32.116C91.7349 31.8863 91.0803 31.5488 90.49 31.116C90.08 30.776 89.87 30.356 89.87 29.836C89.87 29.376 90.05 28.986 90.41 28.666C90.83 28.306 91.41 28.126 92.17 28.126C93.12 28.126 93.97 28.326 94.73 28.726L95.26 27.026C94.313 26.5833 93.2747 26.3709 92.23 26.406C90.87 26.406 89.78 26.746 88.96 27.426C88.5657 27.7395 88.2494 28.1402 88.036 28.5965C87.8226 29.0528 87.7178 29.5524 87.73 30.056C87.73 31.686 88.9 32.936 91.23 33.776C92.1 34.086 92.71 34.426 93.08 34.776C93.45 35.146 93.63 35.586 93.63 36.116C93.63 36.716 93.41 37.186 92.96 37.536C92.51 37.886 91.89 38.066 91.08 38.066C89.9903 38.0769 88.9184 37.7899 87.98 37.236L87.49 38.976C88.36 39.516 89.52 39.776 90.95 39.776C92.51 39.776 93.72 39.406 94.59 38.646ZM58.99 39.586H61.27L56.95 26.606H54.3L50 39.606H52.22L53.41 35.786H57.74L59 39.586H58.99ZM56.24 30.786L57.37 34.176H53.78L54.89 30.776C55.19 29.696 55.39 28.876 55.53 28.336H55.57C55.9 29.616 56.12 30.436 56.24 30.776V30.786ZM71 38.556C71.923 37.5204 72.3977 36.161 72.32 34.776C72.32 33.356 71.94 32.206 71.18 31.326C70.8341 30.9105 70.3994 30.5779 69.9078 30.3529C69.4163 30.1279 68.8805 30.0162 68.34 30.026C66.89 30.026 65.81 30.576 65.09 31.696H65.05L64.93 30.206H63.05C63.1 31.266 63.13 32.296 63.13 33.296V43.406H65.27V38.466H65.31C65.87 39.366 66.78 39.796 68.04 39.796C69.22 39.796 70.2 39.396 71 38.566V38.556ZM69.5 32.606C69.92 33.206 70.13 33.956 70.13 34.866C70.1729 35.7143 69.9376 36.5535 69.46 37.256C69.01 37.856 68.38 38.156 67.58 38.156C66.89 38.156 66.34 37.926 65.91 37.456C65.4791 36.9882 65.2462 36.3718 65.26 35.736V34.166C65.26 34.006 65.29 33.796 65.36 33.536C65.4751 33.0154 65.7632 32.5492 66.1772 32.2132C66.5912 31.8773 67.1068 31.6915 67.64 31.686C68.42 31.686 69.04 31.986 69.5 32.606ZM83.38 34.786C83.38 36.386 82.94 37.646 82.06 38.566C81.6818 38.9662 81.2238 39.2825 80.7156 39.4944C80.2074 39.7063 79.6604 39.809 79.11 39.796C77.84 39.796 76.93 39.356 76.37 38.466H76.33V43.406H74.2V33.306C74.2 32.306 74.18 31.276 74.13 30.216H76L76.12 31.706H76.16C76.5005 31.1619 76.9807 30.719 77.5505 30.4235C78.1204 30.1281 78.759 29.9908 79.4 30.026C80.54 30.026 81.49 30.466 82.25 31.336C83.0379 32.308 83.4401 33.5362 83.38 34.786ZM81.21 34.866C81.21 33.956 80.99 33.206 80.57 32.606C80.3595 32.3114 80.0797 32.0734 79.7552 31.9129C79.4308 31.7524 79.0717 31.6745 78.71 31.686C78.1768 31.6915 77.6612 31.8773 77.2472 32.2132C76.8332 32.5492 76.5451 33.0154 76.43 33.536C76.37 33.796 76.33 34.006 76.33 34.166V35.736C76.33 36.416 76.55 36.986 76.98 37.456C77.4 37.926 77.96 38.156 78.65 38.156C79.45 38.156 80.08 37.856 80.53 37.256C80.98 36.656 81.21 35.856 81.21 34.866ZM102.84 31.786H100.48V36.336C100.48 37.486 100.89 38.066 101.73 38.066C102.11 38.066 102.43 38.036 102.68 37.966L102.74 39.546C102.31 39.706 101.76 39.776 101.07 39.776C100.706 39.7969 100.341 39.7409 100 39.6117C99.659 39.4824 99.3489 39.2829 99.09 39.026C98.62 38.526 98.38 37.686 98.38 36.506V31.776H96.98V30.216H98.38V28.506L100.48 27.886V30.216H102.84V31.786ZM112.21 38.376C113.071 37.3989 113.522 36.1274 113.47 34.826C113.47 33.426 113.07 32.286 112.24 31.396C111.38 30.486 110.24 30.026 108.84 30.026C107.37 30.026 106.2 30.496 105.34 31.426C104.456 32.3961 103.989 33.6747 104.04 34.986C103.997 36.2558 104.449 37.4928 105.3 38.436C105.732 38.893 106.258 39.2512 106.841 39.486C107.425 39.7207 108.052 39.8265 108.68 39.796C110.14 39.796 111.32 39.326 112.21 38.376ZM110.68 32.676C111.06 33.286 111.25 34.026 111.25 34.896C111.25 35.756 111.05 36.506 110.66 37.136C110.475 37.4836 110.198 37.7737 109.86 37.9748C109.521 38.1758 109.134 38.28 108.74 38.276C107.91 38.276 107.26 37.906 106.8 37.156C106.4 36.4858 106.199 35.716 106.22 34.936C106.22 34.036 106.42 33.286 106.8 32.676C106.992 32.3267 107.276 32.0372 107.622 31.8396C107.968 31.6419 108.362 31.5437 108.76 31.556C109.59 31.556 110.23 31.926 110.68 32.676ZM120.43 32.046C120.205 32.0091 119.978 31.9923 119.75 31.996C119 31.996 118.42 32.266 118.01 32.826C117.65 33.316 117.47 33.926 117.47 34.676V39.586H115.33L115.35 33.166C115.35 32.096 115.33 31.106 115.27 30.226H117.14L117.22 32.016H117.27C117.5 31.396 117.86 30.906 118.34 30.526C118.82 30.196 119.34 30.026 119.89 30.026C120.09 30.026 120.27 30.046 120.42 30.066V32.046H120.43ZM129.91 35.406C129.97 35.146 129.99 34.836 129.99 34.466C129.99 33.296 129.71 32.306 129.14 31.516C128.43 30.516 127.38 30.016 125.99 30.016C124.58 30.016 123.46 30.516 122.63 31.516C121.815 32.5045 121.389 33.7558 121.43 35.036C121.43 36.476 121.86 37.626 122.71 38.476C123.178 38.9186 123.732 39.2612 124.337 39.4829C124.942 39.7047 125.586 39.801 126.23 39.766C127.47 39.766 128.55 39.566 129.46 39.186L129.12 37.736C128.34 38.036 127.48 38.186 126.52 38.186C125.67 38.186 124.97 37.966 124.42 37.526C123.83 37.036 123.52 36.326 123.49 35.406H129.91ZM127.54 32.326C127.82 32.776 127.96 33.306 127.95 33.926H123.5C123.56 33.296 123.77 32.756 124.13 32.306C124.56 31.736 125.13 31.456 125.83 31.456C126.6 31.456 127.16 31.746 127.53 32.326H127.54Z" fill="#F5F5F5"/>
</g>
<defs>
<clipPath id="clip0_1_519">
<rect width="151" height="56" fill="white" transform="translate(0 0.40625)"/>
</clipPath>
</defs>
</svg>
