<svg width="20" height="20" viewBox="0 0 20 20" fill="none" xmlns="http://www.w3.org/2000/svg">
<path fill-rule="evenodd" clip-rule="evenodd" d="M0.891434 2.68156C0.476196 3.4968 0.476196 4.56347 0.476196 6.6968V13.5539C0.476196 15.6873 0.476196 16.7539 0.891434 17.5692C1.25666 18.286 1.83942 18.8687 2.5562 19.2339C3.37143 19.6492 4.4381 19.6492 6.57143 19.6492H13.4286C15.5619 19.6492 16.6286 19.6492 17.4438 19.2339C18.1606 18.8687 18.7434 18.286 19.1086 17.5692C19.5238 16.7539 19.5238 15.6873 19.5238 13.5539V6.6968C19.5238 4.56347 19.5238 3.4968 19.1086 2.68156C18.7434 1.96479 18.1606 1.38203 17.4438 1.0168C16.6286 0.601562 15.5619 0.601562 13.4286 0.601562H6.57143C4.4381 0.601562 3.37143 0.601562 2.5562 1.0168C1.83942 1.38203 1.25666 1.96479 0.891434 2.68156ZM10.7095 17.0778V10.6558H13.4143L13.8219 8.26156H10.7095V7.14442C10.7095 6.27775 11.3933 5.56632 12.2486 5.56632H13.8581V3.17299H12.2486C10.1238 3.17299 8.39143 4.94632 8.39143 7.14537V8.26156H6.14382V10.6558H8.39143V17.0778H10.7095Z" fill="white"/>
</svg>
