<svg width="151" height="57" viewBox="0 0 151 57" fill="none" xmlns="http://www.w3.org/2000/svg">
<g clip-path="url(#clip0_1_524)">
<path d="M0 0.15625H151V56.1562H0V0.15625Z" fill="black"/>
<path d="M75.6499 29.536C73.2599 29.536 71.3099 31.346 71.3099 33.836C71.3072 34.4039 71.418 34.9666 71.6359 35.4911C71.8538 36.0155 72.1743 36.4911 72.5787 36.8899C72.983 37.2887 73.463 37.6026 73.9905 37.8131C74.5179 38.0237 75.0821 38.1266 75.6499 38.116C78.0499 38.116 79.9999 36.296 79.9999 33.826C80.0055 33.256 79.8963 32.6907 79.6789 32.1638C79.4615 31.6368 79.1403 31.159 78.7344 30.7588C78.3286 30.3585 77.8463 30.044 77.3164 29.8339C76.7865 29.6239 76.2198 29.5225 75.6499 29.536ZM75.6499 36.436C74.3399 36.436 73.2099 35.366 73.2099 33.836C73.2099 32.286 74.3399 31.226 75.6499 31.226C76.9599 31.226 78.0899 32.286 78.0899 33.826C78.0899 35.366 76.9499 36.426 75.6499 36.426V36.436ZM66.1699 29.536C63.7699 29.536 61.8199 31.346 61.8199 33.836C61.8171 34.4047 61.9283 34.9683 62.1468 35.4934C62.3653 36.0186 62.6867 36.4946 63.0922 36.8935C63.4976 37.2924 63.9788 37.6061 64.5074 37.8161C65.036 38.026 65.6013 38.128 66.1699 38.116C68.5599 38.116 70.5099 36.296 70.5099 33.826C70.5154 33.2568 70.4065 32.6924 70.1898 32.1662C69.973 31.6399 69.6527 31.1626 69.2479 30.7624C68.8431 30.3623 68.3621 30.0476 67.8334 29.8369C67.3046 29.6262 66.739 29.5239 66.1699 29.536ZM66.1699 36.436C64.8499 36.436 63.7199 35.366 63.7199 33.836C63.7199 32.286 64.8499 31.226 66.1699 31.226C67.4699 31.226 68.6099 32.286 68.6099 33.826C68.6099 35.366 67.4799 36.426 66.1699 36.426V36.436ZM54.8899 30.856V32.666H59.2899C59.225 33.5233 58.8726 34.3337 58.2899 34.966C57.8467 35.4111 57.3152 35.7585 56.7297 35.9859C56.1441 36.2132 55.5174 36.3154 54.8899 36.286C54.2545 36.2886 53.6249 36.1651 53.0376 35.9226C52.4503 35.6801 51.917 35.3233 51.4686 34.8731C51.0203 34.4229 50.6658 33.8881 50.4257 33.2998C50.1856 32.7115 50.0646 32.0814 50.0699 31.446C50.0646 30.8097 50.1859 30.1788 50.4266 29.5898C50.6673 29.0009 51.0227 28.4656 51.4722 28.0153C51.9216 27.5649 52.4561 27.2084 53.0445 26.9664C53.633 26.7245 54.2637 26.602 54.8999 26.606C56.3499 26.606 57.4199 27.166 58.1999 27.906L59.4999 26.626C58.8915 26.0296 58.1707 25.5598 57.3793 25.244C56.588 24.9281 55.7419 24.7725 54.8899 24.786C53.1045 24.7778 51.3878 25.4732 50.1113 26.7216C48.8349 27.9699 48.1015 29.6708 48.0699 31.456C48.1041 33.2403 48.8383 34.9397 50.1141 36.1875C51.39 37.4353 53.1053 38.1315 54.8899 38.126C56.8899 38.126 58.3899 37.486 59.5799 36.256C60.6459 35.1021 61.2167 33.5762 61.1699 32.006C61.1699 31.576 61.1399 31.186 61.0699 30.866H54.8899V30.856ZM101 32.256C100.64 31.306 99.54 29.526 97.2999 29.526C95.0599 29.526 93.2099 31.266 93.2099 33.826C93.2099 36.226 95.0399 38.106 97.5099 38.106C98.2203 38.1113 98.9208 37.9405 99.549 37.6089C100.177 37.2774 100.714 36.7954 101.11 36.206L99.6299 35.236C99.4092 35.6003 99.098 35.9013 98.7265 36.1099C98.355 36.3184 97.9359 36.4273 97.5099 36.426C97.07 36.4443 96.6347 36.3302 96.2603 36.0985C95.8859 35.8667 95.5897 35.5279 95.41 35.126L101.2 32.746L101 32.266V32.256ZM95.0999 33.696C95.0811 33.3835 95.1245 33.0705 95.2278 32.775C95.3311 32.4795 95.4921 32.2075 95.7015 31.9748C95.9109 31.7422 96.1644 31.5535 96.4475 31.4198C96.7305 31.2861 97.0373 31.21 97.3499 31.196C98.1099 31.196 98.7499 31.566 98.9599 32.096L95.0899 33.696H95.0999ZM90.3899 37.856H92.2899V25.246H90.3899V37.866V37.856ZM87.2799 30.486H87.1999C86.91 30.173 86.5567 29.9256 86.1635 29.76C85.7703 29.5945 85.3464 29.5147 84.9199 29.526C83.8031 29.5624 82.7446 30.0332 81.9696 30.8381C81.1945 31.643 80.7641 32.7186 80.7699 33.836C80.7699 36.236 82.7599 38.116 84.9199 38.116C85.9499 38.116 86.7799 37.666 87.1999 37.136H87.2699V37.756C87.2699 39.396 86.3799 40.276 84.9599 40.276C84.4873 40.2655 84.0282 40.1157 83.6404 39.8453C83.2525 39.5748 82.9532 39.1959 82.7799 38.756L81.1199 39.436C81.4345 40.1935 81.9679 40.8399 82.652 41.2924C83.3362 41.7449 84.1398 41.9829 84.9599 41.976C87.1799 41.976 89.0599 40.676 89.0599 37.506V29.796H87.2599V30.496H87.2799V30.486ZM85.0799 36.426C83.7799 36.426 82.6799 35.326 82.6799 33.836C82.6799 32.326 83.7799 31.226 85.0799 31.226C86.3799 31.226 87.3999 32.326 87.3999 33.836C87.3999 35.336 86.3899 36.426 85.0899 36.426H85.0799ZM109.91 25.236H105.36V37.856H107.26V33.076H109.92C112.03 33.076 114.1 31.556 114.1 29.156C114.1 26.756 112.01 25.236 109.91 25.236ZM109.95 31.316H107.25V26.986H109.95C110.241 26.9793 110.53 27.0303 110.8 27.1361C111.071 27.2418 111.318 27.4001 111.527 27.6019C111.737 27.8036 111.904 28.0449 112.019 28.3116C112.135 28.5784 112.196 28.8653 112.2 29.156C112.2 30.146 111.4 31.326 109.97 31.326L109.95 31.316ZM121.7 29.516C120.33 29.516 118.9 30.116 118.31 31.436L120 32.136C120.36 31.436 121.03 31.206 121.73 31.206C122.71 31.206 123.71 31.786 123.73 32.826V32.956C123.115 32.6374 122.432 32.4726 121.74 32.476C119.92 32.476 118.08 33.466 118.08 35.316C118.08 36.996 119.56 38.086 121.23 38.086C122.5 38.086 123.22 37.526 123.65 36.856H123.71V37.836H125.55V32.996C125.55 30.756 123.87 29.506 121.7 29.506V29.516ZM121.47 36.416C120.84 36.416 119.98 36.116 119.98 35.356C119.98 34.386 121.06 34.006 122 34.006C122.83 34.006 123.23 34.196 123.72 34.436C123.648 34.9831 123.38 35.4858 122.967 35.8514C122.553 36.217 122.022 36.4211 121.47 36.426V36.416ZM132.24 29.786L130.06 35.256H130L127.74 29.786H125.69L129.08 37.426L127.15 41.676H129.13L134.35 29.776H132.23L132.24 29.786ZM115.14 37.856H117.04V25.246H115.14V37.866V37.856Z" fill="#F5F5F5"/>
<path d="M16.92 15.196C16.62 15.516 16.45 15.996 16.45 16.616V38.936C16.45 39.556 16.63 40.036 16.92 40.346L16.99 40.416L29.6 27.916V27.636L17 15.126L16.92 15.196Z" fill="url(#paint0_linear_1_524)"/>
<path d="M33.8 32.0961L29.6 27.9261V27.6261L33.8 23.4561L33.9 23.5061L38.88 26.3061C40.3 27.1061 40.3 28.4161 38.88 29.2261L33.9 32.0261L33.8 32.0961Z" fill="url(#paint1_linear_1_524)"/>
<path d="M33.9 32.0364L29.6 27.7764L16.92 40.3464C17.39 40.8464 18.16 40.9064 19.04 40.4064L33.9 32.0364Z" fill="url(#paint2_linear_1_524)"/>
<path d="M33.9 23.5158L19.03 15.1358C18.15 14.6358 17.38 14.7058 16.91 15.1958L29.61 27.7758L33.9 23.5158Z" fill="url(#paint3_linear_1_524)"/>
<path opacity="0.2" d="M33.8001 31.9458L19.0401 40.2558C18.2101 40.7158 17.4701 40.6858 17.0001 40.2658L16.9301 40.3358L17.0001 40.4058C17.4801 40.8358 18.2101 40.8658 19.0401 40.4058L33.9101 32.0258L33.8101 31.9258L33.8001 31.9458Z" fill="black"/>
<path opacity="0.12" d="M16.92 40.2064C16.62 39.8964 16.45 39.4064 16.45 38.7964V38.9464C16.45 39.5664 16.63 40.0464 16.92 40.3564L16.99 40.2864L16.92 40.2064ZM38.88 29.0864L33.7999 31.9464L33.8899 32.0364L38.8699 29.2364C39.57 28.8264 39.93 28.2964 39.93 27.7764C39.88 28.2464 39.53 28.7264 38.88 29.0764V29.0864Z" fill="black"/>
<path opacity="0.25" d="M19.0299 15.2767L38.8799 26.4667C39.5199 26.8267 39.8799 27.2867 39.9399 27.7667C39.9399 27.2467 39.5899 26.7167 38.8799 26.3167L19.0299 15.1367C17.5999 14.3367 16.4399 15.0067 16.4399 16.6267V16.7767C16.4399 15.1467 17.6099 14.4767 19.0299 15.2767Z" fill="white"/>
<path d="M48.37 20.7064V14.6564H50.25C51.18 14.6564 51.94 14.9364 52.5 15.4964C53.05 16.0564 53.34 16.7864 53.34 17.6864C53.34 18.5864 53.05 19.3064 52.5 19.8764C52.1977 20.1585 51.842 20.3773 51.4539 20.5198C51.0657 20.6623 50.653 20.7258 50.24 20.7064H48.37ZM49.16 19.9664H50.24C50.94 19.9664 51.5 19.7664 51.91 19.3664C52.33 18.9564 52.54 18.3964 52.54 17.6664C52.54 16.9564 52.34 16.4064 51.91 15.9964C51.6852 15.7908 51.4219 15.6319 51.1352 15.5289C50.8485 15.4259 50.5442 15.3809 50.24 15.3964H49.16V19.9664ZM54.44 20.7064V14.6564H55.22V20.7064H54.44ZM58.34 20.8464C57.89 20.8464 57.46 20.6964 57.04 20.4064C56.6163 20.1247 56.3159 19.692 56.2 19.1964L56.91 18.9164C56.99 19.2464 57.17 19.5264 57.43 19.7564C57.7 19.9864 57.99 20.0964 58.33 20.0964C58.66 20.0964 58.96 19.9964 59.2 19.8364C59.3181 19.7557 59.414 19.6465 59.4786 19.5189C59.5433 19.3913 59.5747 19.2494 59.57 19.1064C59.57 18.7764 59.45 18.5064 59.2 18.3264C58.8471 18.0947 58.4586 17.9224 58.05 17.8164C57.5954 17.6922 57.1749 17.4665 56.82 17.1564C56.55 16.8864 56.4 16.5564 56.4 16.1264C56.4 15.6964 56.58 15.3264 56.92 14.9964C57.27 14.6764 57.72 14.5164 58.28 14.5164C58.7308 14.4973 59.1749 14.6313 59.54 14.8964C59.86 15.1464 60.08 15.4364 60.17 15.7364L59.46 16.0364C59.41 15.8364 59.28 15.6564 59.08 15.4964C58.88 15.3364 58.62 15.2464 58.3 15.2464C58 15.2464 57.74 15.3364 57.52 15.5064C57.4229 15.5778 57.3441 15.6712 57.2902 15.779C57.2363 15.8868 57.2088 16.0059 57.21 16.1264C57.21 16.3464 57.31 16.5464 57.51 16.7064C57.7 16.8564 57.99 16.9964 58.37 17.1164C58.67 17.2164 58.92 17.3164 59.12 17.3964C59.32 17.4964 59.52 17.6164 59.73 17.7664C59.93 17.9164 60.1 18.0964 60.2 18.3164C60.3113 18.5638 60.3672 18.8325 60.3638 19.1037C60.3603 19.3749 60.2976 19.642 60.18 19.8864C60.06 20.1164 59.9 20.2964 59.69 20.4264C59.295 20.703 58.8221 20.8466 58.34 20.8364V20.8464ZM62.29 20.7064H61.5V14.6564H63.58C64.1 14.6564 64.55 14.8264 64.92 15.1664C65.3 15.5164 65.49 15.9364 65.49 16.4664C65.49 16.9764 65.3 17.4064 64.92 17.7564C64.55 18.0964 64.1 18.2664 63.58 18.2664H62.28V20.7064H62.29ZM62.29 17.5064H63.6C63.93 17.5064 64.2 17.4064 64.4 17.1764C64.6 16.9564 64.69 16.7164 64.69 16.4564C64.69 16.1864 64.59 15.9564 64.39 15.7264C64.19 15.5064 63.93 15.3964 63.6 15.3964H62.29V17.5164V17.5064ZM71.48 19.9264C71.1911 20.227 70.8426 20.4641 70.4569 20.6225C70.0713 20.7809 69.6568 20.8572 69.24 20.8464C68.8245 20.8533 68.4119 20.7761 68.0271 20.6193C67.6423 20.4626 67.2931 20.2296 67.0007 19.9343C66.7083 19.6391 66.4786 19.2878 66.3255 18.9015C66.1725 18.5151 66.0991 18.1018 66.11 17.6864C66.11 16.8064 66.4 16.0464 67 15.4464C67.2889 15.1459 67.6374 14.9088 68.023 14.7504C68.4087 14.592 68.8232 14.5157 69.24 14.5264C69.6564 14.5196 70.0699 14.5968 70.4558 14.7533C70.8417 14.9099 71.1921 15.1425 71.4861 15.4375C71.7801 15.7324 72.0116 16.0836 72.167 16.47C72.3223 16.8564 72.3981 17.2701 72.39 17.6864C72.39 18.5664 72.08 19.3164 71.48 19.9264ZM67.58 19.4264C68.03 19.8764 68.58 20.0964 69.24 20.0964C69.89 20.0964 70.45 19.8764 70.9 19.4164C71.35 18.9664 71.58 18.3864 71.58 17.6864C71.5922 17.3721 71.5405 17.0586 71.4283 16.7648C71.316 16.471 71.1454 16.2029 70.9267 15.9768C70.7081 15.7507 70.4459 15.5711 70.156 15.4491C69.8661 15.327 69.5545 15.2649 69.24 15.2664C68.59 15.2664 68.03 15.4964 67.58 15.9464C67.3547 16.1753 67.1782 16.4475 67.0613 16.7466C66.9444 17.0457 66.8895 17.3655 66.9 17.6864C66.9 18.3864 67.13 18.9664 67.58 19.4164V19.4264ZM73.48 20.7064V14.6564H74.44L77.41 19.3664H77.44L77.41 18.1964V14.6564H78.2V20.7064H77.38L74.28 15.7764H74.25L74.28 16.9464V20.7064H73.48ZM79.6 20.7064V14.6564H80.37V20.7064H79.59H79.6ZM80.32 14.1764H79.64L80.09 13.1064H80.94L80.32 14.1764ZM83.29 20.7064L81.14 14.6564H82L83.67 19.5664H83.7L85.45 14.6564H86.32L84.1 20.7064H83.29ZM90.78 15.4064H88V17.3164H90.5V18.0464H88V19.9664H90.78V20.7064H87.2V14.6564H90.77V15.4064H90.78ZM92 20.7064V14.6564H92.78V19.9564H95.43V20.7064H92ZM98.46 20.7064V14.6564H99.42L102.39 19.3664H102.42L102.39 18.1964V14.6564H103.17V20.7064H102.36L99.26 15.7764H99.23L99.26 16.9464V20.7064H98.46ZM109.57 19.9264C109.281 20.227 108.933 20.4641 108.547 20.6225C108.161 20.7809 107.747 20.8572 107.33 20.8464C106.914 20.8533 106.501 20.7761 106.116 20.6194C105.73 20.4628 105.381 20.23 105.087 19.9349C104.794 19.6398 104.563 19.2886 104.409 18.9022C104.255 18.5158 104.181 18.1023 104.19 17.6864C104.19 16.8064 104.49 16.0464 105.09 15.4464C105.379 15.1459 105.727 14.9088 106.113 14.7504C106.499 14.592 106.913 14.5157 107.33 14.5264C107.746 14.521 108.158 14.5992 108.543 14.7563C108.927 14.9134 109.277 15.1463 109.57 15.4411C109.862 15.7359 110.093 16.0866 110.248 16.4723C110.403 16.858 110.478 17.2709 110.47 17.6864C110.477 18.101 110.402 18.5129 110.247 18.8977C110.092 19.2824 109.862 19.6322 109.57 19.9264ZM105.67 19.4264C106.12 19.8764 106.67 20.0964 107.33 20.0964C107.98 20.0964 108.53 19.8764 108.99 19.4164C109.44 18.9664 109.67 18.3864 109.67 17.6864C109.682 17.3721 109.631 17.0586 109.518 16.7648C109.406 16.471 109.235 16.2029 109.017 15.9768C108.798 15.7507 108.536 15.5711 108.246 15.4491C107.956 15.327 107.645 15.2649 107.33 15.2664C106.68 15.2664 106.12 15.4964 105.67 15.9464C105.445 16.1753 105.268 16.4475 105.151 16.7466C105.034 17.0457 104.98 17.3655 104.99 17.6864C104.99 18.3864 105.22 18.9664 105.67 19.4164V19.4264Z" fill="#F5F5F5"/>
</g>
<defs>
<linearGradient id="paint0_linear_1_524" x1="28.48" y1="16.376" x2="11.55" y2="33.466" gradientUnits="userSpaceOnUse">
<stop stop-color="#00A0FF"/>
<stop offset="0.01" stop-color="#00A1FF"/>
<stop offset="0.26" stop-color="#00BEFF"/>
<stop offset="0.51" stop-color="#00D2FF"/>
<stop offset="0.76" stop-color="#00DFFF"/>
<stop offset="1" stop-color="#00E3FF"/>
</linearGradient>
<linearGradient id="paint1_linear_1_524" x1="40.73" y1="27.7761" x2="16.1" y2="27.7761" gradientUnits="userSpaceOnUse">
<stop stop-color="#FFE000"/>
<stop offset="0.41" stop-color="#FFBD00"/>
<stop offset="0.78" stop-color="#FFA500"/>
<stop offset="1" stop-color="#FF9C00"/>
</linearGradient>
<linearGradient id="paint2_linear_1_524" x1="31.56" y1="30.0864" x2="8.60005" y2="53.2564" gradientUnits="userSpaceOnUse">
<stop stop-color="#FF3A44"/>
<stop offset="1" stop-color="#C31162"/>
</linearGradient>
<linearGradient id="paint3_linear_1_524" x1="13.72" y1="7.76581" x2="23.98" y2="18.1158" gradientUnits="userSpaceOnUse">
<stop stop-color="#32A071"/>
<stop offset="0.07" stop-color="#2DA771"/>
<stop offset="0.48" stop-color="#15CF74"/>
<stop offset="0.8" stop-color="#06E775"/>
<stop offset="1" stop-color="#00F076"/>
</linearGradient>
<clipPath id="clip0_1_524">
<rect width="151" height="56" fill="white" transform="translate(0 0.15625)"/>
</clipPath>
</defs>
</svg>
