<svg width="20" height="20" viewBox="0 0 20 20" fill="none" xmlns="http://www.w3.org/2000/svg">
<path fill-rule="evenodd" clip-rule="evenodd" d="M0.89141 2.6816C0.476196 3.49651 0.476196 4.56327 0.476196 6.6968V13.5539C0.476196 15.6875 0.476196 16.7542 0.89141 17.5692C1.25664 18.2859 1.83942 18.8687 2.55623 19.2339C3.37114 19.6492 4.4379 19.6492 6.57143 19.6492H13.4286C15.5621 19.6492 16.6289 19.6492 17.4438 19.2339C18.1606 18.8687 18.7433 18.2859 19.1086 17.5692C19.5238 16.7542 19.5238 15.6875 19.5238 13.5539V6.6968C19.5238 4.56327 19.5238 3.49651 19.1086 2.6816C18.7433 1.96479 18.1606 1.38201 17.4438 1.01678C16.6289 0.601562 15.5621 0.601562 13.4286 0.601562H6.57143C4.4379 0.601562 3.37114 0.601562 2.55623 1.01678C1.83942 1.38201 1.25664 1.96479 0.89141 2.6816ZM15.754 5.44283C16.3019 5.44283 16.746 4.99867 16.746 4.45077C16.746 3.90287 16.3019 3.45871 15.754 3.45871C15.2061 3.45871 14.7619 3.90287 14.7619 4.45077C14.7619 4.99867 15.2061 5.44283 15.754 5.44283ZM5.2381 10.1254C5.2381 7.49545 7.37008 5.36347 10 5.36347C12.6299 5.36347 14.7619 7.49545 14.7619 10.1254C14.7619 12.7553 12.6299 14.8873 10 14.8873C7.37008 14.8873 5.2381 12.7553 5.2381 10.1254Z" fill="white"/>
</svg>
