<svg width="44" height="24" viewBox="0 0 44 24" fill="none" xmlns="http://www.w3.org/2000/svg">
<g clip-path="url(#clip0_1_234)">
<path d="M8.10243 2.28935C9.478 0.844177 11.3027 0 13.4463 0C17.6224 0 20.3912 3.04906 20.9209 7.61677C21.0926 9.10012 21.0911 11.1914 21.0894 13.6137C21.0891 13.8621 21.089 14.114 21.089 14.3691V23.4433H15.3461V16.7318C15.3461 16.7318 15.3344 10.9876 15.2993 9.91403C15.1452 5.23837 12.3771 2.30042 8.10182 2.29726C6.81194 3.66004 6.1208 5.32629 6.01887 7.87403C6.00486 8.22937 6.00839 9.48892 6.01303 11.149C6.01544 12.0091 6.01815 12.9767 6.01887 13.9818C6.02313 18.3565 6.01887 23.4443 6.01887 23.4443H0.276001V13.1152C0.276001 12.7613 0.269551 12.4044 0.263076 12.046C0.250051 11.3252 0.236924 10.5989 0.276001 9.8796C0.340886 8.68058 0.548307 7.50187 1.10781 6.40689C2.38849 3.89835 5.01262 2.2832 7.81015 2.2832C7.90788 2.2832 8.00568 2.28525 8.10243 2.28935Z" fill="white"/>
<path d="M43.724 14.1199C43.7631 13.4007 43.7499 12.6742 43.737 11.9535C43.7304 11.5951 43.724 11.2382 43.724 10.8843V0.555164H37.9812C37.9812 0.555164 37.9769 5.64302 37.9812 10.0176C37.9818 11.0227 37.9845 11.9903 37.9869 12.8504C37.9916 14.5105 37.9951 15.7701 37.9812 16.1254C37.8792 18.6732 37.188 20.3394 35.8982 21.7023C31.623 21.699 28.855 18.7611 28.7008 14.0855C28.6657 13.0119 28.6509 10.3479 28.6509 7.26237V0.550781L22.9122 0.556144V9.63041C22.9122 9.88549 22.912 10.1373 22.9119 10.3858C22.9101 12.8081 22.9086 14.8993 23.0803 16.3827C23.6089 20.9505 26.3777 23.9995 30.5538 23.9995C32.6975 23.9995 34.5222 23.1553 35.8977 21.7101C35.9944 21.7143 36.0921 21.7163 36.1899 21.7163C38.9874 21.7163 41.6115 20.1012 42.8922 17.5926C43.4517 16.4976 43.6591 15.3189 43.724 14.1199Z" fill="white"/>
</g>
<defs>
<clipPath id="clip0_1_234">
<rect width="44" height="24" fill="white"/>
</clipPath>
</defs>
</svg>
