<svg width="20" height="20" viewBox="0 0 20 20" fill="none" xmlns="http://www.w3.org/2000/svg">
<path fill-rule="evenodd" clip-rule="evenodd" d="M0.476196 6.6968C0.476196 4.56327 0.476196 3.49651 0.89141 2.6816C1.25664 1.96479 1.83942 1.38201 2.55623 1.01678C3.37114 0.601562 4.4379 0.601562 6.57143 0.601562H13.4286C15.5621 0.601562 16.6289 0.601562 17.4438 1.01678C18.1606 1.38201 18.7433 1.96479 19.1086 2.6816C19.5238 3.49651 19.5238 4.56327 19.5238 6.6968V13.5539C19.5238 15.6875 19.5238 16.7542 19.1086 17.5692C18.7433 18.2859 18.1606 18.8687 17.4438 19.2339C16.6289 19.6492 15.5621 19.6492 13.4286 19.6492H6.57143C4.4379 19.6492 3.37114 19.6492 2.55623 19.2339C1.83942 18.8687 1.25664 18.2859 0.89141 17.5692C0.476196 16.7542 0.476196 15.6875 0.476196 13.5539V6.6968ZM14.9271 7.84144C14.9271 11.3318 12.3707 15.3635 7.6987 15.3635C6.26689 15.3635 4.92922 14.9253 3.80953 14.1828C4.0077 14.2086 4.21083 14.2189 4.41396 14.2189C5.60301 14.2189 6.69792 13.7961 7.56989 13.0847C6.46011 13.064 5.51879 12.301 5.19675 11.2493C5.35034 11.2802 5.50887 11.2957 5.67237 11.2957C5.90522 11.2957 6.12817 11.2648 6.34121 11.2029C5.18189 10.9606 4.30497 9.88821 4.30497 8.60962V8.57353C4.64682 8.76945 5.03822 8.88803 5.45438 8.9035C4.77563 8.42918 4.32479 7.61974 4.32479 6.70205C4.32479 6.21742 4.44864 5.76373 4.66663 5.37191C5.92009 6.97014 7.79283 8.02704 9.90343 8.13531C9.86372 7.93939 9.83896 7.73832 9.83896 7.53211C9.83896 6.07307 10.9785 4.88728 12.3806 4.88728C13.1089 4.88728 13.7678 5.20692 14.2335 5.72249C14.8131 5.60391 15.3581 5.38737 15.8487 5.08319C15.6554 5.70186 15.2541 6.22258 14.729 6.54738C15.2442 6.48036 15.7347 6.34115 16.1905 6.12978C15.8487 6.6608 15.4176 7.12996 14.9222 7.50117C14.9271 7.61459 14.9271 7.72802 14.9271 7.84144Z" fill="white"/>
</svg>
