<svg width="20" height="21" viewBox="0 0 20 21" fill="none" xmlns="http://www.w3.org/2000/svg">
<g clip-path="url(#clip0_1_244)">
<path fill-rule="evenodd" clip-rule="evenodd" d="M0.89141 2.6816C0.476196 3.49651 0.476196 4.56327 0.476196 6.6968V13.5539C0.476196 15.6875 0.476196 16.7542 0.89141 17.5692C1.25664 18.2859 1.83942 18.8687 2.55623 19.2339C3.37114 19.6492 4.4379 19.6492 6.57143 19.6492H13.4286C15.5621 19.6492 16.6289 19.6492 17.4438 19.2339C18.1606 18.8687 18.7433 18.2859 19.1086 17.5692C19.5238 16.7542 19.5238 15.6875 19.5238 13.5539V6.6968C19.5238 4.56327 19.5238 3.49651 19.1086 2.6816C18.7433 1.96479 18.1606 1.38201 17.4438 1.01678C16.6289 0.601562 15.5621 0.601562 13.4286 0.601562H6.57143C4.4379 0.601562 3.37114 0.601562 2.55623 1.01678C1.83942 1.38201 1.25664 1.96479 0.89141 2.6816ZM13.566 9.73576L7.85572 6.38077C7.53694 6.19348 7.14286 6.43381 7.14286 6.81552V13.4353C7.14286 13.8144 7.5322 14.055 7.85088 13.8728L13.5611 10.608C13.8901 10.4199 13.8929 9.92783 13.566 9.73576Z" fill="white"/>
</g>
<defs>
<clipPath id="clip0_1_244">
<rect width="20" height="20" fill="white" transform="translate(0 0.125)"/>
</clipPath>
</defs>
</svg>
